<?xml version="1.0" encoding="UTF-8"?>
<svg width="714px" height="258px" viewBox="0 0 714 258" version="1.1" xmlns="http://www.w3.org/2000/svg" xmlns:xlink="http://www.w3.org/1999/xlink">
    <!-- Generator: Sketch 46.2 (44496) - http://www.bohemiancoding.com/sketch -->
    <title>Group</title>
    <desc>Created with Sketch.</desc>
    <defs></defs>
    <g id="Page-1" stroke="none" stroke-width="1" fill="none" fill-rule="evenodd">
        <g id="Artboard" transform="translate(-154.000000, -122.000000)" fill="#FFFFFF">
            <g id="Group" transform="translate(154.000000, 122.000000)">
                <g id="tofu" fill-rule="nonzero">
                    <path d="M300.720116,53.7827003 C299.078781,52.3141326 297.351061,51.0183375 295.62334,49.8953152 C301.756749,38.1467734 305.298576,20.0056427 289.230773,6.5293742 C275.927323,-4.61446322 255.799376,0.395944304 242.40954,7.56601024 C227.119211,-3.49144084 206.300176,6.70214687 196.279395,14.6496898 C116.458696,78.0572609 99.7861903,91.2743704 53.3968875,120.127407 C19.4471744,141.205673 18.4969279,161.765621 20.0518766,170.663414 C-5.0864606,188.718158 -1.37186094,208.414243 3.6385293,219.126149 C5.62540819,223.445465 12.4499052,234.157371 30.5909733,234.157371 C36.1196798,234.157371 42.6850188,233.120735 50.5461483,230.701918 C54.519906,248.411117 67.73697,258 88.8151634,258 C112.398552,258 142.547279,245.560368 161.897752,233.293508 C195.329149,211.869696 276.100095,157.446304 301.843135,111.488773 C309.704264,97.4941866 318.256482,69.5913999 300.720116,53.7827003 Z M59.2711382,129.457131 C106.178757,100.258549 122.937649,86.9550536 203.190279,23.2883235 C203.363051,23.1155508 219.776398,10.330373 232.129601,14.5633035 C223.922928,21.4742104 215.80264,28.1259583 207.855125,34.6913199 C205.522702,36.0735013 203.449437,37.801228 201.721716,39.7017274 C186.690545,51.9685872 172.091305,63.6307427 158.096766,74.6018074 C151.185883,76.3295342 143.756684,80.648851 137.104959,90.7560524 C124.838141,100.085777 113.003254,108.810797 101.686683,116.931112 C94.2574838,117.967748 88.037689,121.423202 82.8545267,127.470245 C81.3859641,129.197972 80.1765595,130.925699 79.2263131,132.739812 C61.6035612,144.833899 45.449372,155.200259 30.7637454,163.752507 C31.3684477,156.496055 36.3788379,143.797263 59.2711382,129.457131 Z M50.2869902,173.255004 C48.9911996,172.909458 47.8681811,172.131981 47.1770928,171.008959 C46.4860045,169.885937 46.3132324,168.590142 46.5723905,167.294347 C47.0907067,165.048302 49.0775856,163.493348 51.4100087,163.493348 C51.7555528,163.493348 52.187483,163.579734 52.5330272,163.66612 C63.2448959,166.171324 70.5877092,166.257711 74.2159228,163.838893 C77.3258202,161.765621 78.2760667,157.619077 79.3990852,150.794556 C80.4357176,144.661126 81.8178942,137.145515 86.9146705,131.184858 C92.1842189,125.051428 98.4040137,122.200679 106.437915,122.200679 C109.806971,122.200679 113.003254,122.718997 115.853993,123.150929 C122.073788,124.101178 126.047546,124.360337 128.898285,122.459838 C133.649517,119.263543 134.772536,114.425909 136.241099,108.292479 C137.277731,103.886776 138.40075,98.876368 141.337875,94.2978922 C151.963358,77.7981019 164.316561,78.8347379 173.559867,79.2666696 C175.373974,79.3530559 177.015309,79.4394423 178.483871,79.4394423 C183.580648,79.4394423 187.468019,78.5755789 191.269005,74.1698757 C192.651182,72.6149217 193.860586,69.0730819 195.501921,63.976288 C198.525432,54.9057227 202.585576,42.4660902 213.297445,37.9740007 C217.012045,36.4190467 222.022435,34.6049336 227.637527,34.6049336 C231.870443,34.6049336 236.016973,35.6415696 240.336275,37.7148417 C241.54568,38.3195461 242.40954,39.2697958 242.84147,40.5655908 C243.2734,41.7749995 243.187014,43.1571809 242.582312,44.3665896 C241.372908,46.785407 238.349396,47.8220431 235.930587,46.6126344 C231.006583,44.193817 223.318225,44.5393623 217.184817,47.1309524 C210.619478,49.8953152 207.682353,59.0522668 205.004385,67.0861961 C203.190279,72.6149217 201.548944,77.4525565 198.784591,80.648851 C192.04648,88.3372349 184.271736,89.373871 178.138327,89.373871 C176.32422,89.373871 174.5965,89.2874846 172.955165,89.2010983 C171.141058,89.114712 169.413337,89.0283256 167.772003,89.0283256 C160.86112,89.0283256 155.418799,90.8424387 149.717321,99.653845 C147.730442,102.763753 146.866581,106.564752 145.916335,110.62491 C144.275,117.535817 142.460893,125.396973 134.513378,130.752926 C131.317094,132.912585 127.688881,133.949221 123.196807,133.949221 C120.173295,133.949221 117.23617,133.517289 114.385431,133.085357 C111.448305,132.653426 108.770338,132.221494 106.351529,132.221494 C101.427525,132.221494 97.8856974,133.862834 94.5166419,137.750219 C91.2339725,141.551218 90.283726,146.907171 89.2470936,152.608669 C87.951303,159.951508 86.6555124,167.639892 79.7446293,172.131981 C78.0169085,173.255004 76.1164157,174.032481 73.9567647,174.637185 C68.1689001,176.019367 60.4805427,175.587435 50.2869902,173.255004 Z M292.167898,106.13282 C267.634263,149.844307 188.677424,203.05829 155.850729,223.877397 C137.882433,235.280393 110.152515,246.856163 88.7287773,246.856163 L88.7287773,246.856163 L88.7287773,246.856163 C70.4149372,246.856163 61.3444031,237.526438 60.3941567,221.026648 C59.4439102,205.64988 79.7446293,192.951089 90.5428841,186.040182 C153.172762,145.784149 170.536356,131.357631 208.632599,99.913004 C217.616747,92.4837791 227.8103,84.0179181 239.990731,74.0834894 C255.021902,61.7302433 267.288719,55.7695861 277.482272,55.7695861 C279.382765,55.7695861 281.110485,56.0287451 282.838206,56.4606767 L282.838206,56.4606767 C282.924592,56.4606767 283.010978,56.5470631 283.097364,56.5470631 C284.479541,56.8926084 285.861717,57.4109264 287.243894,58.0156308 C287.848596,58.2747898 288.453299,58.6203352 289.058001,58.9658805 C289.489931,59.2250395 289.921861,59.4841985 290.353791,59.7433575 C291.390424,60.4344482 292.513442,61.2119253 293.463689,62.162175 C305.730506,73.1332397 297.955763,95.7664599 292.167898,106.13282 Z" id="Shape"></path>
                </g>
                <path d="M408.19,131 L408.19,60.54 L433.41,60.54 L433.41,44.29 L364.25,44.29 L364.25,60.54 L389.6,60.54 L389.6,131 L408.19,131 Z M489.83,132.56 C463.57,132.56 444.46,113.84 444.46,87.71 C444.46,61.58 463.57,42.86 489.83,42.86 C515.96,42.86 535.07,61.58 535.07,87.71 C535.07,113.84 515.96,132.56 489.83,132.56 Z M489.83,116.18 C505.82,116.18 516.09,103.83 516.09,87.71 C516.09,71.46 505.82,59.24 489.83,59.24 C473.71,59.24 463.44,71.46 463.44,87.71 C463.44,103.83 473.71,116.18 489.83,116.18 Z M573.03,131 L573.03,94.99 L615.02,94.99 L615.02,78.74 L573.03,78.74 L573.03,60.54 L615.93,60.54 L615.93,44.29 L554.57,44.29 L554.57,131 L573.03,131 Z M674.43,132.56 C700.82,132.56 713.56,117.74 713.56,96.29 L713.56,44.29 L694.71,44.29 L694.71,95.77 C694.71,107.86 687.82,116.18 674.43,116.18 C661.04,116.18 654.02,107.86 654.02,95.77 L654.02,44.29 L635.3,44.29 L635.3,96.29 C635.3,117.74 648.04,132.56 674.43,132.56 Z" id="TOFU"></path>
                <path d="M353.9,254 L319.58,254 L319.58,167.29 L353.77,167.29 C380.94,167.29 399.79,184.58 399.79,210.58 C399.79,236.84 380.94,254 353.9,254 Z M353.77,237.75 C370.93,237.75 380.94,225.4 380.94,210.58 C380.94,195.37 371.58,183.54 353.9,183.54 L338.04,183.54 L338.04,237.75 L353.77,237.75 Z M460.63,255.56 C434.37,255.56 415.26,236.84 415.26,210.71 C415.26,184.58 434.37,165.86 460.63,165.86 C486.76,165.86 505.87,184.58 505.87,210.71 C505.87,236.84 486.76,255.56 460.63,255.56 Z M460.63,239.18 C476.62,239.18 486.89,226.83 486.89,210.71 C486.89,194.46 476.62,182.24 460.63,182.24 C444.51,182.24 434.24,194.46 434.24,210.71 C434.24,226.83 444.51,239.18 460.63,239.18 Z M567.49,255.56 C583.09,255.56 595.44,249.19 604.28,239.31 L604.28,206.03 L562.94,206.03 L562.94,222.15 L585.82,222.15 L585.82,232.55 C582.31,235.8 575.16,239.18 567.49,239.18 C551.63,239.18 540.19,227.09 540.19,210.71 C540.19,194.33 551.63,182.24 567.49,182.24 C576.59,182.24 584,187.44 588.03,193.55 L603.24,185.23 C596.74,174.96 585.43,165.86 567.49,165.86 C542.01,165.86 521.21,183.28 521.21,210.71 C521.21,238.01 542.01,255.56 567.49,255.56 Z M633.53,255.43 C639.25,255.43 644.06,250.62 644.06,244.9 C644.06,239.18 639.25,234.37 633.53,234.37 C627.81,234.37 623,239.18 623,244.9 C623,250.62 627.81,255.43 633.53,255.43 Z" id="DOG."></path>
            </g>
        </g>
    </g>
</svg>