<?xml version="1.0" encoding="utf-8"?>
<!-- Generator: Adobe Illustrator 19.1.0, SVG Export Plug-In . SVG Version: 6.00 Build 0)  -->
<svg version="1.1" id="Layer_1" xmlns="http://www.w3.org/2000/svg" xmlns:xlink="http://www.w3.org/1999/xlink" x="0px" y="0px"
	 viewBox="214 167 360 360" style="enable-background:new 214 167 360 360;" xml:space="preserve">
<style type="text/css">
	.st0{display:none;}
	.st1{display:inline;}
	.st2{stroke:#231F20;stroke-width:1.7301;stroke-miterlimit:10;}
	.st3{fill:#FFFFFF;}
</style>
<g class="st0">
	<g class="st1">
		<g>
			<path class="st2" d="M393.4,248.8"/>
		</g>
		<g>
			<path class="st2" d="M393.4,248.8"/>
		</g>
		<g>
			<path d="M320.7,320.4c-1.8,0.2-3.1,1.8-3,3.6l14.2,157.6c0.2,1.7,1.6,3,3.3,3c0.1,0,0.2,0,0.3,0c1.8-0.2,3.1-1.8,3-3.6
				l-14.2-157.6C324.1,321.6,322.5,320.2,320.7,320.4z"/>
			<path d="M362.1,327c-1.8,0.1-3.2,1.6-3.2,3.4l6.6,158c0.1,1.8,1.5,3.2,3.3,3.2h0.1c1.8-0.1,3.2-1.6,3.2-3.4l-6.6-158
				C365.4,328.3,363.9,326.8,362.1,327z"/>
			<path d="M432.9,484.5c0.1,0,0.2,0,0.3,0c1.7,0,3.1-1.3,3.3-3L450.7,324c0.2-1.8-1.2-3.4-3-3.6c-1.9-0.2-3.4,1.2-3.6,3L429.9,481
				C429.8,482.8,431.1,484.4,432.9,484.5z"/>
			<path d="M399.5,491.5h0.1c1.8,0,3.2-1.4,3.3-3.2l6.6-158c0.1-1.8-1.3-3.3-3.1-3.4c-1.8,0-3.4,1.3-3.4,3.2l-6.6,158
				C396.2,489.9,397.6,491.5,399.5,491.5z"/>
			<path d="M311.4,281.8c2.2,0,4.2-0.9,5.6-2.5c1.3-1.4,2-3.2,2-5.2c0-4.2-3.4-7.6-7.6-7.6s-7.6,3.4-7.6,7.6
				C303.8,278.4,307.2,281.8,311.4,281.8z"/>
			<circle cx="358.7" cy="282.5" r="7.6"/>
			<path d="M460,211.7c-1.1-9.2-5.1-16.2-9.2-21c-8.6-10-20.4-14.8-26.8-17.4c-5.5-2.2-15.6-6.3-27-6.3c-7.7,0-17.1,1.9-25.7,8.9
				c-34.5-9.2-69.8-12.7-77.2,5.8l-9.4,23.2c-1.1,2.6-0.8,5.6,0.8,8l3.8,5.8l-7.3,58.8l-2.6,5H279c0,0.2,0.1,0.5,0.1,0.7l-2.9,5.7
				c-0.8,1.5-1.1,3.2-0.9,4.9l21.9,193.3c0.6,26.2,44.1,39.9,87,39.9c43,0,86.5-13.7,87.1-39.9l21.3-187.8l4.5-1.5
				c2.4-0.8,4.3-2.6,5.2-4.9l3.5-8.5c0.1-0.1,0.1-0.3,0.2-0.4l5.8-14.3C519.1,251.1,491.2,229.1,460,211.7z M367.3,203.9
				c6.5-16.1,16.2-23.9,29.7-23.9c8.8,0,17.2,3.4,22.1,5.4c5.4,2.2,15.3,6.2,21.8,13.8c5.8,6.8,7.7,15.1,5.8,25l0,0
				c-0.6,3.3-1.7,6.8-3.2,10.5c-0.4,1.1-0.8,1.1-1.4,1.1l0,0l0,0c-1,0-2.4-0.4-4.1-1.1c-2.5-1-3.5-1.8-4-2.4c-0.2-0.3-0.4-0.5,0-1.5
				c1-2.4,1.7-4.7,2.2-6.8c0.1-0.4,0.2-0.8,0.3-1.2c0.1-0.5,0.2-1.1,0.3-1.6c0.1-0.5,0.2-1.1,0.2-1.6c1.3-12.6-7-18.9-21.8-24.9
				c-8.3-3.4-13.6-4.7-18.3-4.7c-6.6,0-11.1,3-14.4,7.1l0,0c-2.5,3.1-4.4,6.9-5.8,10.5c-0.4,1.1-0.8,1.1-1.4,1.1l0,0l0,0
				c-1,0-2.4-0.4-4.1-1.1C366.5,205.8,366.9,204.8,367.3,203.9z M363.6,191.8c-1.5,2.6-3,5.6-4.3,8.9c-1.5,3.7-2.4,10.6,8.7,15.1
				c2.9,1.2,5.2,1.7,7.4,1.7c4.4,0,7.7-2.3,9.4-6.5c2.5-6.1,4.8-9.1,7-10.7c5.9,2.1,12.1,4.4,18.5,7c6.4,2.6,12.4,5.2,18.1,7.9
				c0.7,3.2-0.2,7.1-2.4,12.5c-1.5,3.7-1,7.3,1.3,10.2c1.6,2,4,3.6,7.5,5c2.9,1.2,5.2,1.7,7.4,1.7c4.4,0,7.7-2.3,9.4-6.5
				c1.3-3.3,2.2-6.4,3-9.4c26.2,15,40,28.4,41,33.9c-15.4,3.4-51.7-1.6-99.1-20.8c-47.3-19.1-76.9-40.7-85.7-53.9
				C315.5,184.4,334.6,184.4,363.6,191.8z M315.4,255.7c10.2,0,18.5,8.3,18.5,18.5c0,10.2-8.3,18.5-18.5,18.5s-18.5-8.3-18.5-18.5
				C296.9,264,305.2,255.7,315.4,255.7z M454,485.6c0,0.3-0.1,0.6-0.1,1c0,9.2-27.8,23.1-69.8,23.1c-41.9,0-69.7-13.9-69.7-23.1
				c0-0.3,0-0.7-0.1-1l-21.2-187.1c18.6,9.2,53.9,15,94.5,15c35,0,67.3-4.5,87.2-11.9L454,485.6z M344.2,282.5
				c0-10.2,8.3-18.5,18.5-18.5s18.5,8.3,18.5,18.5c0,10.2-8.3,18.5-18.5,18.5S344.2,292.7,344.2,282.5z M489.6,277.8
				c-0.1,0.1-0.1,0.3-0.2,0.4l-1.7,4.1c-12.7,3.7-48,0.4-99.6-20.4c-42.7-17.2-71.8-36.9-82.7-50.2l-3-4.6l4.9-12.3
				c14.2,17.7,50,38.5,86.4,53.2c32.2,13,67.4,22.3,90.6,22.3c3,0,5.9-0.2,8.5-0.5L489.6,277.8z"/>
		</g>
	</g>
</g>
<g>
	<g>
		<path class="st3" d="M562.1,260c-1.9-1.7-3.9-3.2-5.9-4.5c7.1-13.6,11.2-34.6-7.4-50.2c-15.4-12.9-38.7-7.1-54.2,1.2
			c-17.7-12.8-41.8-1-53.4,8.2c-92.4,73.4-111.7,88.7-165.4,122.1c-39.3,24.4-40.4,48.2-38.6,58.5c-29.1,20.9-24.8,43.7-19,56.1
			c2.3,5,10.2,17.4,31.2,17.4c6.4,0,14-1.2,23.1-4c4.6,20.5,19.9,31.6,44.3,31.6c27.3,0,62.2-14.4,84.6-28.6
			c38.7-24.8,132.2-87.8,162-141C572.5,310.6,582.4,278.3,562.1,260z M282.6,347.6c54.3-33.8,73.7-49.2,166.6-122.9
			c0.2-0.2,19.2-15,33.5-10.1c-9.5,8-18.9,15.7-28.1,23.3c-2.7,1.6-5.1,3.6-7.1,5.8c-17.4,14.2-34.3,27.7-50.5,40.4
			c-8,2-16.6,7-24.3,18.7c-14.2,10.8-27.9,20.9-41,30.3c-8.6,1.2-15.8,5.2-21.8,12.2c-1.7,2-3.1,4-4.2,6.1
			c-20.4,14-39.1,26-56.1,35.9C250.3,378.9,256.1,364.2,282.6,347.6z M272.2,398.3c-1.5-0.4-2.8-1.3-3.6-2.6c-0.8-1.3-1-2.8-0.7-4.3
			c0.6-2.6,2.9-4.4,5.6-4.4c0.4,0,0.9,0.1,1.3,0.2c12.4,2.9,20.9,3,25.1,0.2c3.6-2.4,4.7-7.2,6-15.1c1.2-7.1,2.8-15.8,8.7-22.7
			c6.1-7.1,13.3-10.4,22.6-10.4c3.9,0,7.6,0.6,10.9,1.1c7.2,1.1,11.8,1.4,15.1-0.8c5.5-3.7,6.8-9.3,8.5-16.4
			c1.2-5.1,2.5-10.9,5.9-16.2c12.3-19.1,26.6-17.9,37.3-17.4c2.1,0.1,4,0.2,5.7,0.2c5.9,0,10.4-1,14.8-6.1c1.6-1.8,3-5.9,4.9-11.8
			c3.5-10.5,8.2-24.9,20.6-30.1c4.3-1.8,10.1-3.9,16.6-3.9c4.9,0,9.7,1.2,14.7,3.6c1.4,0.7,2.4,1.8,2.9,3.3c0.5,1.4,0.4,3-0.3,4.4
			c-1.4,2.8-4.9,4-7.7,2.6c-5.7-2.8-14.6-2.4-21.7,0.6c-7.6,3.2-11,13.8-14.1,23.1c-2.1,6.4-4,12-7.2,15.7
			c-7.8,8.9-16.8,10.1-23.9,10.1c-2.1,0-4.1-0.1-6-0.2c-2.1-0.1-4.1-0.2-6-0.2c-8,0-14.3,2.1-20.9,12.3c-2.3,3.6-3.3,8-4.4,12.7
			c-1.9,8-4,17.1-13.2,23.3c-3.7,2.5-7.9,3.7-13.1,3.7c-3.5,0-6.9-0.5-10.2-1c-3.4-0.5-6.5-1-9.3-1c-5.7,0-9.8,1.9-13.7,6.4
			c-3.8,4.4-4.9,10.6-6.1,17.2c-1.5,8.5-3,17.4-11,22.6c-2,1.3-4.2,2.2-6.7,2.9C292.9,401.5,284,401,272.2,398.3z M552.2,320.6
			c-28.4,50.6-119.8,112.2-157.8,136.3c-20.8,13.2-52.9,26.6-77.7,26.6l0,0l0,0c-21.2,0-31.7-10.8-32.8-29.9
			c-1.1-17.8,22.4-32.5,34.9-40.5c72.5-46.6,92.6-63.3,136.7-99.7c10.4-8.6,22.2-18.4,36.3-29.9c17.4-14.3,31.6-21.2,43.4-21.2
			c2.2,0,4.2,0.3,6.2,0.8l0,0c0.1,0,0.2,0.1,0.3,0.1c1.6,0.4,3.2,1,4.8,1.7c0.7,0.3,1.4,0.7,2.1,1.1c0.5,0.3,1,0.6,1.5,0.9
			c1.2,0.8,2.5,1.7,3.6,2.8C567.9,282.4,558.9,308.6,552.2,320.6z"/>
	</g>
</g>
</svg>
